<svg xmlns="http://www.w3.org/2000/svg" viewBox="0 0 100 100">
  <defs>
    <linearGradient id="eyeGradient" x1="0%" y1="0%" x2="100%" y2="100%">
      <stop offset="0%" style="stop-color:oklch(0.65 0.11 185);stop-opacity:1" />
      <stop offset="50%" style="stop-color:oklch(0.88 0.18 185);stop-opacity:1" />
      <stop offset="100%" style="stop-color:oklch(0.88 0.18 185);stop-opacity:1" />
    </linearGradient>
    <radialGradient id="irisGradient" cx="50%" cy="50%" r="50%">
      <stop offset="0%" style="stop-color:oklch(0.88 0.18 185);stop-opacity:1" />
      <stop offset="40%" style="stop-color:oklch(0.65 0.11 185);stop-opacity:1" />
      <stop offset="70%" style="stop-color:oklch(0.65 0.11 185);stop-opacity:1" />
      <stop offset="100%" style="stop-color:oklch(0.3 0.04 230);stop-opacity:1" />
    </radialGradient>
    <filter id="glow">
      <feGaussianBlur stdDeviation="2" result="coloredBlur"/>
      <feMerge>
        <feMergeNode in="coloredBlur"/>
        <feMergeNode in="SourceGraphic"/>
      </feMerge>
    </filter>
  </defs>
  
  <rect width="100" height="100" fill="oklch(0.15 0.02 240)"/>
  
  <circle cx="50" cy="50" r="47" fill="none" stroke="url(#eyeGradient)" stroke-width="1.5"/>
  
  <ellipse cx="50" cy="50" rx="44" ry="30" fill="none" stroke="url(#eyeGradient)" stroke-width="3.5" filter="url(#glow)"/>
  
  <circle cx="50" cy="50" r="20" fill="url(#irisGradient)" filter="url(#glow)"/>
  
  <circle cx="50" cy="50" r="9" fill="oklch(0.15 0.02 240)"/>
  
  <circle cx="45" cy="45" r="3.5" fill="oklch(1 0 0)"/>
  
  <circle cx="48" cy="48" r="1.5" fill="oklch(1 0 0)"/>
  
  <line x1="20" y1="50" x2="30" y2="50" stroke="url(#eyeGradient)" stroke-width="2.5" stroke-linecap="round"/>
  <line x1="70" y1="50" x2="80" y2="50" stroke="url(#eyeGradient)" stroke-width="2.5" stroke-linecap="round"/>
  <line x1="50" y1="20" x2="50" y2="30" stroke="url(#eyeGradient)" stroke-width="2.5" stroke-linecap="round"/>
  <line x1="50" y1="70" x2="50" y2="80" stroke="url(#eyeGradient)" stroke-width="2.5" stroke-linecap="round"/>
  
  <circle cx="50" cy="50" r="35" fill="none" stroke="url(#eyeGradient)" stroke-width="1.5" stroke-dasharray="5 5"/>
  
  <circle cx="30" cy="30" r="2" fill="url(#eyeGradient)"/>
  <circle cx="70" cy="30" r="2" fill="url(#eyeGradient)"/>
  <circle cx="30" cy="70" r="2" fill="url(#eyeGradient)"/>
  <circle cx="70" cy="70" r="2" fill="url(#eyeGradient)"/>
  
  <path d="M 35 35 L 40 40 M 60 40 L 65 35 M 35 65 L 40 60 M 65 65 L 60 60" stroke="url(#eyeGradient)" stroke-width="1.5" stroke-linecap="round"/>
</svg>
